<svg width="15" height="15" viewBox="0 0 15 15" fill="none" xmlns="http://www.w3.org/2000/svg">
<path fill-rule="evenodd" clip-rule="evenodd" d="M9.81674 2.68324C9.93391 2.80046 9.99973 2.95941 9.99973 3.12514C9.99973 3.29088 9.93391 3.44983 9.81674 3.56704L5.88362 7.50036L9.81674 11.4337C9.93059 11.5516 9.99359 11.7094 9.99216 11.8733C9.99074 12.0372 9.92501 12.194 9.80913 12.3099C9.69325 12.4257 9.53649 12.4915 9.37262 12.4929C9.20874 12.4943 9.05087 12.4313 8.93299 12.3175L4.55799 7.94226C4.44082 7.82505 4.375 7.66609 4.375 7.50036C4.375 7.33462 4.44082 7.17567 4.55799 7.05846L8.93299 2.68324C9.0502 2.56607 9.20914 2.50024 9.37487 2.50024C9.54059 2.50024 9.69954 2.56607 9.81674 2.68324V2.68324Z" fill="#ADADAD"/>
</svg>
