<svg width="10" height="10" viewBox="0 0 10 10" fill="none" xmlns="http://www.w3.org/2000/svg">
<g clip-path="url(#clip0_386_1745)">
<path d="M9.46375 1.69875C9.34655 1.5581 9.19982 1.44498 9.03397 1.36742C8.86813 1.28987 8.68725 1.24978 8.50417 1.25H1.7675L1.75 1.10375C1.71419 0.799757 1.56808 0.519472 1.33937 0.316032C1.11066 0.112593 0.815261 0.000142414 0.509167 0L0.416667 0C0.30616 0 0.200179 0.0438987 0.122039 0.122039C0.0438987 0.200179 0 0.30616 0 0.416667C0 0.527174 0.0438987 0.633154 0.122039 0.711295C0.200179 0.789435 0.30616 0.833333 0.416667 0.833333H0.509167C0.611222 0.833347 0.709724 0.870815 0.785988 0.938631C0.862253 1.00645 0.910976 1.0999 0.922917 1.20125L1.49625 6.07625C1.55577 6.58325 1.79937 7.05074 2.18079 7.39C2.56222 7.72927 3.05494 7.91668 3.56542 7.91667H7.91667C8.02717 7.91667 8.13315 7.87277 8.21129 7.79463C8.28943 7.71649 8.33333 7.61051 8.33333 7.5C8.33333 7.38949 8.28943 7.28351 8.21129 7.20537C8.13315 7.12723 8.02717 7.08333 7.91667 7.08333H3.56542C3.30752 7.08261 3.05617 7.00213 2.84581 6.85294C2.63545 6.70375 2.47638 6.49315 2.39042 6.25H7.35708C7.84554 6.25003 8.31847 6.07843 8.69326 5.76518C9.06804 5.45193 9.32085 5.01696 9.4075 4.53625L9.73458 2.72208C9.76723 2.54209 9.75989 2.35711 9.71309 2.18027C9.66629 2.00342 9.58116 1.83903 9.46375 1.69875Z" fill="white"/>
<path d="M2.91671 10C3.37694 10 3.75004 9.62691 3.75004 9.16667C3.75004 8.70643 3.37694 8.33334 2.91671 8.33334C2.45647 8.33334 2.08337 8.70643 2.08337 9.16667C2.08337 9.62691 2.45647 10 2.91671 10Z" fill="white"/>
<path d="M7.08333 10C7.54357 10 7.91667 9.62691 7.91667 9.16667C7.91667 8.70643 7.54357 8.33334 7.08333 8.33334C6.6231 8.33334 6.25 8.70643 6.25 9.16667C6.25 9.62691 6.6231 10 7.08333 10Z" fill="white"/>
</g>
<defs>
<clipPath id="clip0_386_1745">
<rect width="10" height="10" fill="white"/>
</clipPath>
</defs>
</svg>
