<svg width="16" height="17" viewBox="0 0 16 17" fill="none" xmlns="http://www.w3.org/2000/svg">
<g clip-path="url(#clip0)">
<path d="M10.6667 4.56665C10.8435 4.56665 11.0131 4.63689 11.1381 4.76191C11.2631 4.88694 11.3334 5.05651 11.3334 5.23332C11.3334 5.41013 11.2631 5.5797 11.1381 5.70472C11.0131 5.82975 10.8435 5.89998 10.6667 5.89998H5.33337C5.15656 5.89998 4.98699 5.82975 4.86197 5.70472C4.73695 5.5797 4.66671 5.41013 4.66671 5.23332C4.66671 5.05651 4.73695 4.88694 4.86197 4.76191C4.98699 4.63689 5.15656 4.56665 5.33337 4.56665H10.6667ZM15.8047 16.3713C15.6797 16.4963 15.5102 16.5665 15.3334 16.5665C15.1566 16.5665 14.9871 16.4963 14.862 16.3713L13.2574 14.7667C12.7822 15.07 12.2305 15.2318 11.6667 15.2333C11.0734 15.2333 10.4933 15.0574 10 14.7277C9.50665 14.3981 9.12213 13.9295 8.89507 13.3814C8.66801 12.8332 8.6086 12.23 8.72435 11.648C8.84011 11.0661 9.12583 10.5316 9.54539 10.112C9.96494 9.69244 10.4995 9.40672 11.0814 9.29096C11.6634 9.17521 12.2666 9.23462 12.8148 9.46168C13.3629 9.68874 13.8315 10.0733 14.1611 10.5666C14.4908 11.06 14.6667 11.64 14.6667 12.2333C14.6652 12.7971 14.5033 13.3488 14.2 13.824L15.8047 15.4286C15.9297 15.5537 15.9999 15.7232 15.9999 15.9C15.9999 16.0768 15.9297 16.2463 15.8047 16.3713ZM11.6667 13.9C11.9963 13.9 12.3186 13.8022 12.5927 13.6191C12.8667 13.436 13.0804 13.1757 13.2065 12.8711C13.3327 12.5666 13.3657 12.2315 13.3013 11.9082C13.237 11.5849 13.0783 11.2879 12.8452 11.0548C12.6121 10.8217 12.3152 10.663 11.9919 10.5987C11.6686 10.5344 11.3334 10.5674 11.0289 10.6935C10.7244 10.8197 10.4641 11.0333 10.2809 11.3074C10.0978 11.5814 10 11.9037 10 12.2333C10 12.6753 10.1756 13.0993 10.4882 13.4118C10.8008 13.7244 11.2247 13.9 11.6667 13.9ZM8.66671 15.2333H4.66671C4.13627 15.2333 3.62757 15.0226 3.25249 14.6475C2.87742 14.2725 2.66671 13.7638 2.66671 13.2333V3.89998C2.66671 3.36955 2.87742 2.86084 3.25249 2.48577C3.62757 2.1107 4.13627 1.89998 4.66671 1.89998H12.6667C12.8435 1.89998 13.0131 1.97022 13.1381 2.09525C13.2631 2.22027 13.3334 2.38984 13.3334 2.56665V7.89998C13.3334 8.0768 13.4036 8.24636 13.5286 8.37139C13.6537 8.49641 13.8232 8.56665 14 8.56665C14.1769 8.56665 14.3464 8.49641 14.4714 8.37139C14.5965 8.24636 14.6667 8.0768 14.6667 7.89998V2.56665C14.6667 2.03622 14.456 1.52751 14.0809 1.15244C13.7058 0.777364 13.1971 0.56665 12.6667 0.56665L4.66671 0.56665C3.78298 0.567709 2.93575 0.919238 2.31085 1.54413C1.68596 2.16902 1.33443 3.01625 1.33337 3.89998V13.2333C1.33443 14.117 1.68596 14.9643 2.31085 15.5892C2.93575 16.2141 3.78298 16.5656 4.66671 16.5667H8.66671C8.84352 16.5667 9.01309 16.4964 9.13811 16.3714C9.26314 16.2464 9.33337 16.0768 9.33337 15.9C9.33337 15.7232 9.26314 15.5536 9.13811 15.4286C9.01309 15.3036 8.84352 15.2333 8.66671 15.2333Z" fill="#000004"/>
</g>
<defs>
<clipPath id="clip0">
<rect width="16" height="16" fill="white" transform="translate(0 0.56665)"/>
</clipPath>
</defs>
</svg>
