<svg width="16" height="16" viewBox="0 0 16 16" fill="none" xmlns="http://www.w3.org/2000/svg">
<path d="M12.0001 4C11.8751 3.87502 11.7056 3.80481 11.5288 3.80481C11.352 3.80481 11.1825 3.87502 11.0575 4L8.00012 7.05733L4.94279 4C4.81777 3.87502 4.64823 3.80481 4.47146 3.80481C4.29468 3.80481 4.12514 3.87502 4.00012 4C3.87514 4.12502 3.80493 4.29456 3.80493 4.47133C3.80493 4.64811 3.87514 4.81765 4.00012 4.94267L7.05746 8L4.00012 11.0573C3.87514 11.1824 3.80493 11.3519 3.80493 11.5287C3.80493 11.7054 3.87514 11.875 4.00012 12C4.12514 12.125 4.29468 12.1952 4.47146 12.1952C4.64823 12.1952 4.81777 12.125 4.94279 12L8.00012 8.94267L11.0575 12C11.1825 12.125 11.352 12.1952 11.5288 12.1952C11.7056 12.1952 11.8751 12.125 12.0001 12C12.1251 11.875 12.1953 11.7054 12.1953 11.5287C12.1953 11.3519 12.1251 11.1824 12.0001 11.0573L8.94279 8L12.0001 4.94267C12.1251 4.81765 12.1953 4.64811 12.1953 4.47133C12.1953 4.29456 12.1251 4.12502 12.0001 4Z" fill="#000004"/>
</svg>
