<svg width="16" height="17" viewBox="0 0 16 17" fill="none" xmlns="http://www.w3.org/2000/svg">
<g clip-path="url(#clip0_45:660)">
<path d="M4.66667 0.56665H2.66667C1.95942 0.56665 1.28115 0.847602 0.781049 1.3477C0.280952 1.8478 0 2.52607 0 3.23332L0 5.23332C0 5.94056 0.280952 6.61884 0.781049 7.11894C1.28115 7.61903 1.95942 7.89998 2.66667 7.89998H4.66667C5.37391 7.89998 6.05219 7.61903 6.55229 7.11894C7.05238 6.61884 7.33333 5.94056 7.33333 5.23332V3.23332C7.33333 2.52607 7.05238 1.8478 6.55229 1.3477C6.05219 0.847602 5.37391 0.56665 4.66667 0.56665V0.56665ZM6 5.23332C6 5.58694 5.85952 5.92608 5.60948 6.17613C5.35943 6.42617 5.02029 6.56665 4.66667 6.56665H2.66667C2.31304 6.56665 1.97391 6.42617 1.72386 6.17613C1.47381 5.92608 1.33333 5.58694 1.33333 5.23332V3.23332C1.33333 2.8797 1.47381 2.54056 1.72386 2.29051C1.97391 2.04046 2.31304 1.89998 2.66667 1.89998H4.66667C5.02029 1.89998 5.35943 2.04046 5.60948 2.29051C5.85952 2.54056 6 2.8797 6 3.23332V5.23332Z" fill="#000004"/>
<path d="M13.3333 0.56665H11.3333C10.626 0.56665 9.94777 0.847602 9.44767 1.3477C8.94758 1.8478 8.66663 2.52607 8.66663 3.23332V5.23332C8.66663 5.94056 8.94758 6.61884 9.44767 7.11894C9.94777 7.61903 10.626 7.89998 11.3333 7.89998H13.3333C14.0405 7.89998 14.7188 7.61903 15.2189 7.11894C15.719 6.61884 16 5.94056 16 5.23332V3.23332C16 2.52607 15.719 1.8478 15.2189 1.3477C14.7188 0.847602 14.0405 0.56665 13.3333 0.56665V0.56665ZM14.6666 5.23332C14.6666 5.58694 14.5261 5.92608 14.2761 6.17613C14.0261 6.42617 13.6869 6.56665 13.3333 6.56665H11.3333C10.9797 6.56665 10.6405 6.42617 10.3905 6.17613C10.1404 5.92608 9.99996 5.58694 9.99996 5.23332V3.23332C9.99996 2.8797 10.1404 2.54056 10.3905 2.29051C10.6405 2.04046 10.9797 1.89998 11.3333 1.89998H13.3333C13.6869 1.89998 14.0261 2.04046 14.2761 2.29051C14.5261 2.54056 14.6666 2.8797 14.6666 3.23332V5.23332Z" fill="#000004"/>
<path d="M4.66667 9.23334H2.66667C1.95942 9.23334 1.28115 9.51429 0.781049 10.0144C0.280952 10.5145 0 11.1928 0 11.9L0 13.9C0 14.6072 0.280952 15.2855 0.781049 15.7856C1.28115 16.2857 1.95942 16.5667 2.66667 16.5667H4.66667C5.37391 16.5667 6.05219 16.2857 6.55229 15.7856C7.05238 15.2855 7.33333 14.6072 7.33333 13.9V11.9C7.33333 11.1928 7.05238 10.5145 6.55229 10.0144C6.05219 9.51429 5.37391 9.23334 4.66667 9.23334ZM6 13.9C6 14.2536 5.85952 14.5928 5.60948 14.8428C5.35943 15.0929 5.02029 15.2333 4.66667 15.2333H2.66667C2.31304 15.2333 1.97391 15.0929 1.72386 14.8428C1.47381 14.5928 1.33333 14.2536 1.33333 13.9V11.9C1.33333 11.5464 1.47381 11.2072 1.72386 10.9572C1.97391 10.7071 2.31304 10.5667 2.66667 10.5667H4.66667C5.02029 10.5667 5.35943 10.7071 5.60948 10.9572C5.85952 11.2072 6 11.5464 6 11.9V13.9Z" fill="#000004"/>
<path d="M13.3333 9.23334H11.3333C10.626 9.23334 9.94777 9.51429 9.44767 10.0144C8.94758 10.5145 8.66663 11.1928 8.66663 11.9V13.9C8.66663 14.6072 8.94758 15.2855 9.44767 15.7856C9.94777 16.2857 10.626 16.5667 11.3333 16.5667H13.3333C14.0405 16.5667 14.7188 16.2857 15.2189 15.7856C15.719 15.2855 16 14.6072 16 13.9V11.9C16 11.1928 15.719 10.5145 15.2189 10.0144C14.7188 9.51429 14.0405 9.23334 13.3333 9.23334ZM14.6666 13.9C14.6666 14.2536 14.5261 14.5928 14.2761 14.8428C14.0261 15.0929 13.6869 15.2333 13.3333 15.2333H11.3333C10.9797 15.2333 10.6405 15.0929 10.3905 14.8428C10.1404 14.5928 9.99996 14.2536 9.99996 13.9V11.9C9.99996 11.5464 10.1404 11.2072 10.3905 10.9572C10.6405 10.7071 10.9797 10.5667 11.3333 10.5667H13.3333C13.6869 10.5667 14.0261 10.7071 14.2761 10.9572C14.5261 11.2072 14.6666 11.5464 14.6666 11.9V13.9Z" fill="#000004"/>
</g>
<defs>
<clipPath id="clip0_45:660">
<rect width="16" height="16" fill="white" transform="translate(0 0.56665)"/>
</clipPath>
</defs>
</svg>
