<svg width="14" height="17" viewBox="0 0 14 17" fill="none" xmlns="http://www.w3.org/2000/svg">
<path d="M6.59995 8.8C7.47019 8.8 8.32088 8.54194 9.04446 8.05847C9.76804 7.57499 10.332 6.8878 10.665 6.08381C10.998 5.27981 11.0852 4.39512 10.9154 3.5416C10.7456 2.68809 10.3266 1.90408 9.71122 1.28873C9.09587 0.673381 8.31187 0.254322 7.45835 0.0845467C6.60483 -0.0852282 5.72014 0.00190646 4.91614 0.334932C4.11215 0.667957 3.42496 1.23192 2.94148 1.95549C2.45801 2.67907 2.19995 3.52976 2.19995 4.4C2.20112 5.5666 2.66506 6.68508 3.48997 7.50998C4.31488 8.33489 5.43336 8.79884 6.59995 8.8ZM6.59995 1.46667C7.18011 1.46667 7.74724 1.63871 8.22962 1.96102C8.71201 2.28334 9.08798 2.74147 9.31 3.27746C9.53202 3.81346 9.59011 4.40325 9.47692 4.97227C9.36374 5.54128 9.08437 6.06395 8.67413 6.47418C8.2639 6.88441 7.74123 7.16379 7.17222 7.27697C6.60321 7.39015 6.01341 7.33206 5.47741 7.11005C4.94142 6.88803 4.48329 6.51206 4.16097 6.02967C3.83866 5.54729 3.66662 4.98016 3.66662 4.4C3.66662 3.62203 3.97566 2.87593 4.52577 2.32582C5.07588 1.77571 5.82198 1.46667 6.59995 1.46667Z" fill="#000004"/>
<path d="M6.6 8.79999C4.85017 8.80193 3.17256 9.49791 1.93524 10.7352C0.697919 11.9725 0.00194103 13.6502 0 15.4C0 15.5945 0.0772616 15.781 0.214788 15.9185C0.352315 16.0561 0.538841 16.1333 0.733333 16.1333C0.927825 16.1333 1.11435 16.0561 1.25188 15.9185C1.3894 15.781 1.46667 15.5945 1.46667 15.4C1.46667 14.0385 2.0075 12.7329 2.97018 11.7702C3.93287 10.8075 5.23855 10.2667 6.6 10.2667C7.96144 10.2667 9.26713 10.8075 10.2298 11.7702C11.1925 12.7329 11.7333 14.0385 11.7333 15.4C11.7333 15.5945 11.8106 15.781 11.9481 15.9185C12.0856 16.0561 12.2722 16.1333 12.4667 16.1333C12.6612 16.1333 12.8477 16.0561 12.9852 15.9185C13.1227 15.781 13.2 15.5945 13.2 15.4C13.1981 13.6502 12.5021 11.9725 11.2648 10.7352C10.0274 9.49791 8.34983 8.80193 6.6 8.79999Z" fill="#000004"/>
</svg>
