<svg width="10" height="10" viewBox="0 0 10 10" fill="none" xmlns="http://www.w3.org/2000/svg">
<path d="M0.552997 5.16666L2.03633 6.24999L1.473 7.99458C1.38196 8.26516 1.38081 8.55791 1.46971 8.8292C1.55861 9.10049 1.73281 9.33578 1.96633 9.49999C2.19585 9.66949 2.47399 9.76028 2.75931 9.75886C3.04463 9.75743 3.32185 9.66386 3.54966 9.49208L5.00008 8.42458L6.45091 9.49083C6.68002 9.65935 6.95666 9.75088 7.24107 9.75227C7.52547 9.75365 7.803 9.66482 8.03373 9.49854C8.26447 9.33226 8.43654 9.0971 8.5252 8.82686C8.61386 8.55662 8.61455 8.26523 8.52716 7.99458L7.96383 6.24999L9.44716 5.16666C9.67597 4.99937 9.84606 4.76406 9.93314 4.49432C10.0202 4.22459 10.0198 3.93424 9.93203 3.66474C9.84423 3.39524 9.67351 3.16038 9.44426 2.9937C9.215 2.82703 8.93894 2.73706 8.6555 2.73666H6.83341L6.2805 1.01333C6.19355 0.74206 6.02269 0.505416 5.79257 0.337521C5.56244 0.169626 5.28494 0.079155 5.00008 0.079155C4.71522 0.079155 4.43772 0.169626 4.20759 0.337521C3.97747 0.505416 3.80661 0.74206 3.71966 1.01333L3.16675 2.73666H1.34633C1.06289 2.73706 0.786827 2.82703 0.557572 2.9937C0.328317 3.16038 0.157597 3.39524 0.0697976 3.66474C-0.0180021 3.93424 -0.0183907 4.22459 0.0686873 4.49432C0.155765 4.76406 0.325856 4.99937 0.554664 5.16666H0.552997Z" fill="white"/>
</svg>
