<svg width="16" height="16" viewBox="0 0 16 16" fill="none" xmlns="http://www.w3.org/2000/svg">
<g clip-path="url(#clip0)">
<path d="M15.891 5.86266C15.7547 5.42859 15.4822 5.04993 15.114 4.78268C14.7458 4.51543 14.3013 4.37377 13.8464 4.37866H10.9337L10.049 1.62132C9.90992 1.1873 9.63655 0.808666 9.26835 0.540033C8.90015 0.271401 8.45615 0.126648 8.00037 0.126648C7.54459 0.126648 7.10059 0.271401 6.73239 0.540033C6.36419 0.808666 6.09082 1.1873 5.95171 1.62132L5.06704 4.37866H2.15437C1.70087 4.3793 1.25917 4.52325 0.892359 4.78993C0.525551 5.05661 0.2524 5.43238 0.11192 5.86358C-0.0285592 6.29478 -0.029181 6.75934 0.110144 7.19092C0.249469 7.62249 0.521613 7.999 0.887706 8.26666L3.25837 9.99999L2.35704 12.7913C2.21138 13.2243 2.20954 13.6927 2.35178 14.1267C2.49402 14.5608 2.77274 14.9372 3.14637 15.2C3.51361 15.4712 3.95863 15.6165 4.41514 15.6142C4.87165 15.6119 5.3152 15.4622 5.67971 15.1873L8.00037 13.4793L10.3217 15.1853C10.6883 15.455 11.1309 15.6014 11.586 15.6036C12.041 15.6058 12.485 15.4637 12.8542 15.1977C13.2234 14.9316 13.4987 14.5554 13.6406 14.123C13.7824 13.6906 13.7835 13.2244 13.6437 12.7913L12.7424 9.99999L15.1157 8.26666C15.486 8.00236 15.7613 7.62586 15.901 7.19289C16.0406 6.75992 16.0371 6.29349 15.891 5.86266ZM14.329 7.18999L11.5664 9.20932C11.4529 9.2921 11.3685 9.40861 11.3251 9.54221C11.2818 9.67582 11.2818 9.8197 11.325 9.95333L12.375 13.2C12.4282 13.3647 12.4277 13.5419 12.3737 13.7063C12.3198 13.8707 12.2151 14.0138 12.0747 14.1149C11.9343 14.216 11.7654 14.27 11.5924 14.2692C11.4194 14.2683 11.2511 14.2126 11.1117 14.11L8.39504 12.11C8.28062 12.0259 8.14235 11.9806 8.00037 11.9806C7.8584 11.9806 7.72013 12.0259 7.60571 12.11L4.88904 14.11C4.74976 14.2139 4.581 14.2708 4.40722 14.2724C4.23343 14.274 4.06367 14.2202 3.92253 14.1188C3.78138 14.0174 3.67621 13.8736 3.62224 13.7084C3.56827 13.5433 3.56832 13.3652 3.62237 13.2L4.67571 9.95333C4.71898 9.8197 4.71895 9.67582 4.67561 9.54221C4.63228 9.40861 4.54785 9.2921 4.43437 9.20932L1.67171 7.18999C1.53258 7.08812 1.4292 6.94489 1.37633 6.78075C1.32347 6.61662 1.32383 6.43998 1.37736 6.27606C1.43089 6.11214 1.53486 5.96933 1.6744 5.86803C1.81395 5.76672 1.98193 5.71211 2.15437 5.71199H5.55437C5.69552 5.71199 5.83302 5.66719 5.94707 5.58404C6.06113 5.5009 6.14585 5.3837 6.18904 5.24932L7.22237 2.02866C7.27541 1.86385 7.37938 1.72012 7.51931 1.61816C7.65924 1.51619 7.82791 1.46126 8.00104 1.46126C8.17417 1.46126 8.34284 1.51619 8.48277 1.61816C8.6227 1.72012 8.72666 1.86385 8.77971 2.02866L9.81304 5.24932C9.85623 5.3837 9.94095 5.5009 10.055 5.58404C10.1691 5.66719 10.3066 5.71199 10.4477 5.71199H13.8477C14.0201 5.71211 14.1881 5.76672 14.3277 5.86803C14.4672 5.96933 14.5712 6.11214 14.6247 6.27606C14.6782 6.43998 14.6786 6.61662 14.6257 6.78075C14.5729 6.94489 14.4695 7.08812 14.3304 7.18999H14.329Z" fill="#000004"/>
</g>
<defs>
<clipPath id="clip0">
<rect width="16" height="16" fill="white"/>
</clipPath>
</defs>
</svg>
